<?xml version="1.0" encoding="utf-8"?>

<!-- Uploaded to: SVG Repo, www.svgrepo.com, Generator: SVG Repo Mixer Tools -->
<svg version="1.1" id="Icons" xmlns="http://www.w3.org/2000/svg" xmlns:xlink="http://www.w3.org/1999/xlink" 
	 viewBox="0 0 32 32" xml:space="preserve">
<style type="text/css">
	.st0{fill:none;stroke:#000000;stroke-width:2;stroke-linecap:round;stroke-linejoin:round;stroke-miterlimit:10;}
</style>
<path class="st0" d="M31,24c0,1.6-2.4,3.1-6,4v-9.5V12c3.6-0.9,6-2.4,6-4c0-2.8-6.7-5-15-5S1,5.2,1,8c0,1.6,2.4,3.1,6,4v7.4V28
	c-3.6-0.9-6-2.4-6-4"/>
<path class="st0" d="M7,20c2.5-0.6,5.6-1,9-1c3.4,0,6.5,0.4,9,1"/>
<line class="st0" x1="1" y1="24" x2="1" y2="8"/>
<line class="st0" x1="31" y1="24" x2="31" y2="8"/>
<polyline class="st0" points="7,16 14,12 18,16 22,14 25,17 "/>
<circle class="st0" cx="11.5" cy="8.5" r="1.5"/>
</svg>